<?xml version="1.0" standalone="no"?>
<!DOCTYPE svg PUBLIC "-//W3C//DTD SVG 20010904//EN"
 "http://www.w3.org/TR/2001/REC-SVG-20010904/DTD/svg10.dtd">
<svg version="1.0" xmlns="http://www.w3.org/2000/svg"
 width="1024.000000pt" height="768.000000pt" viewBox="0 0 1024.000000 768.000000"
 preserveAspectRatio="xMidYMid meet">

<g transform="translate(0.000000,768.000000) scale(0.100000,-0.100000)"
fill="#000000" stroke="none">
<path d="M1983 6365 c0 -27 2 -38 4 -22 2 15 2 37 0 50 -2 12 -4 0 -4 -28z"/>
<path d="M1980 6206 c0 -83 -19 -118 -21 -39 -1 43 -2 45 -9 18 -4 -16 -8 -46
-9 -66 -1 -23 -7 -39 -17 -43 -10 -4 -13 -13 -9 -28 5 -20 4 -21 -5 -5 -6 9
-9 21 -5 26 3 5 -1 11 -7 14 -7 2 -9 8 -5 13 4 5 13 2 18 -6 8 -11 9 -8 4 13
-4 19 -2 26 5 22 6 -4 10 3 10 17 0 18 -2 20 -10 8 -6 -10 -10 -11 -10 -2 0 6
-11 12 -24 12 -21 0 -25 6 -29 38 -2 20 -3 11 -1 -22 3 -47 16 -83 68 -190
l64 -131 1 213 c1 116 -1 212 -4 212 -3 0 -5 -33 -5 -74z m-80 -60 c0 -15 -14
-35 -21 -30 -15 9 -10 34 6 34 8 0 15 -2 15 -4z"/>
<path d="M3490 6131 l0 -49 -90 4 c-51 3 -90 1 -90 -5 0 -5 43 -9 95 -10 l95
-2 0 56 c0 30 -2 55 -5 55 -3 0 -5 -22 -5 -49z"/>
<path d="M3269 5545 c-4 -476 -2 -552 11 -563 19 -17 271 -13 277 5 3 8 -31
12 -121 15 -68 2 -127 5 -130 8 -3 3 -7 226 -10 495 -2 270 -5 499 -6 510 -1
11 2 31 6 44 5 16 4 22 -4 18 -5 -4 -12 -1 -15 5 -3 7 -7 -234 -8 -537z"/>
<path d="M4264 6023 c-45 -9 -41 0 -246 -513 -60 -151 -130 -327 -153 -390
-24 -63 -69 -180 -100 -260 -85 -217 -225 -590 -225 -598 0 -4 55 -6 122 -5
68 2 133 3 145 3 19 0 32 26 104 210 l83 210 401 0 401 0 16 -37 c9 -21 33
-76 53 -123 62 -143 94 -214 109 -240 15 -25 17 -25 162 -28 88 -1 153 -7 161
-14 10 -8 13 -7 13 4 0 8 -4 18 -9 24 -5 5 -14 27 -21 49 -6 22 -18 54 -25 70
-7 17 -32 77 -55 135 -55 139 -80 191 -96 197 -7 2 -21 28 -30 56 -9 29 -20
57 -24 62 -3 6 -15 33 -24 60 -10 28 -29 75 -42 105 -12 30 -38 96 -57 145
-57 145 -302 744 -335 818 l-31 67 -138 -1 c-76 -1 -148 -4 -159 -6z m275
-751 c73 -183 130 -336 126 -340 -6 -7 -546 -5 -552 2 -4 3 27 88 99 276 22
58 54 141 71 185 16 44 34 84 39 90 4 5 8 15 8 22 0 30 43 104 59 101 11 -2
58 -108 150 -336z m589 -623 c-3 -8 -7 -3 -11 10 -4 17 -3 21 5 13 5 -5 8 -16
6 -23z m139 -351 c-3 -8 -6 -5 -6 6 -1 11 2 17 5 13 3 -3 4 -12 1 -19z"/>
<path d="M4366 5534 c-4 -13 -18 -50 -33 -81 -24 -54 -63 -159 -63 -172 0 -19
30 41 35 72 4 20 11 37 15 37 5 0 14 17 20 38 7 20 16 41 21 47 5 5 9 18 9 29
0 16 5 14 25 -14 22 -29 25 -31 25 -13 0 12 -4 25 -10 28 -5 3 -10 14 -10 25
0 29 -27 32 -34 4z"/>
<path d="M4251 5244 c-23 -52 -111 -286 -111 -297 0 -11 14 -1 16 11 0 4 6 21
13 37 6 17 19 50 27 75 9 25 22 57 31 73 8 15 12 27 8 27 -3 0 4 18 15 41 12
22 20 45 18 51 -2 6 -10 -3 -17 -18z"/>
<path d="M1845 5816 l6 -198 80 -82 79 -81 0 134 0 135 -54 90 c-29 50 -68
116 -85 146 l-32 55 6 -199z"/>
<path d="M5547 5965 c-3 -16 -5 -408 -4 -870 l2 -840 131 -3 c130 -3 132 -2
135 20 2 13 4 403 4 868 l0 845 -132 5 -132 5 -4 -30z"/>
<path d="M2547 5913 c-11 -10 -8 -53 3 -53 5 0 7 7 4 15 -4 8 -1 22 6 30 12
15 0 22 -13 8z"/>
<path d="M2590 5881 c0 -5 -3 -18 -6 -28 -5 -16 -4 -16 10 1 18 23 20 36 6 36
-5 0 -10 -4 -10 -9z"/>
<path d="M2888 5583 l252 -258 -1 -544 c-1 -516 0 -544 18 -561 10 -10 79 -68
153 -129 104 -86 141 -111 164 -111 l30 0 -30 23 c-16 12 -42 33 -58 47 -58
50 -125 106 -184 155 l-61 50 0 534 -1 533 -261 257 c-143 141 -264 257 -267
259 -4 1 107 -114 246 -255z"/>
<path d="M2054 5638 c3 -29 6 -71 6 -93 1 -24 4 -34 8 -24 4 9 14 15 22 13 49
-10 64 -14 69 -22 3 -5 15 -12 26 -16 11 -3 36 -21 57 -38 20 -18 53 -46 73
-63 47 -38 105 -98 105 -108 0 -5 -5 -5 -12 -1 -7 4 -8 3 -4 -5 4 -6 11 -9 16
-6 4 3 10 -3 14 -13 3 -9 12 -35 20 -57 11 -27 16 -76 16 -147 0 -73 4 -110
13 -118 120 -99 142 -114 180 -121 53 -10 341 -12 351 -1 4 4 -77 12 -181 19
-222 14 -229 15 -226 30 3 15 -46 55 -58 47 -5 -3 -7 1 -4 8 3 7 -8 22 -24 32
-34 23 -42 68 -40 223 1 110 -7 127 -103 218 -164 156 -316 295 -323 295 -3 0
-4 -24 -1 -52z"/>
<path d="M1850 5393 c0 -118 4 -173 12 -181 22 -22 75 -14 109 16 30 27 32 34
37 108 l4 80 -38 29 c-21 16 -58 49 -81 73 l-43 43 0 -168z"/>
<path d="M1502 5478 c5 -16 298 -25 298 -9 0 16 -23 19 -164 20 -109 2 -137
-1 -134 -11z"/>
<path d="M5852 5300 c0 -14 2 -19 5 -12 2 6 2 18 0 25 -3 6 -5 1 -5 -13z"/>
<path d="M5850 4729 c0 -261 -3 -484 -6 -496 -6 -23 -9 -23 -155 -23 -122 0
-149 -3 -149 -14 0 -8 6 -21 13 -28 8 -7 16 -20 20 -28 3 -8 6 -10 6 -5 1 6
38 9 97 7 94 -4 172 4 160 15 -3 3 1 11 10 17 14 10 15 71 14 516 0 277 -3
506 -5 509 -3 2 -5 -209 -5 -470z"/>
<path d="M2006 5173 c-3 -4 -39 -12 -79 -18 -40 -6 -71 -14 -69 -18 1 -4 2
-180 2 -392 0 -250 4 -385 10 -385 6 0 10 128 10 365 0 237 4 365 10 365 6 0
10 -4 10 -10 0 -15 28 -12 107 11 40 12 70 26 67 31 -3 5 -15 6 -26 2 -14 -4
-18 -2 -14 5 5 7 54 11 141 11 l134 0 1 -272 c0 -150 4 -276 8 -280 4 -4 118
-8 252 -8 210 -1 245 1 248 13 3 13 -29 16 -225 19 -125 2 -234 7 -242 12 -12
8 -13 50 -8 255 6 226 8 248 27 273 l21 28 -189 0 c-104 0 -192 -3 -196 -7z"/>
<path d="M2430 5173 c0 -5 5 -15 10 -23 8 -12 10 -11 10 8 0 12 -4 22 -10 22
-5 0 -10 -3 -10 -7z"/>
<path d="M3040 4437 l0 -376 38 -11 c23 -6 44 -19 51 -33 6 -12 24 -28 39 -35
15 -6 43 -26 62 -43 l35 -31 -32 16 c-47 24 -41 11 10 -18 45 -27 114 -92 105
-101 -2 -3 -23 12 -46 34 -22 21 -67 52 -99 67 -52 26 -68 29 -159 29 -94 0
-105 -2 -164 -33 -69 -35 -87 -36 -44 -3 15 11 22 21 16 21 -19 0 -64 -48 -50
-53 9 -3 3 -15 -19 -38 -51 -54 -101 -170 -116 -269 -4 -21 -4 -21 -6 6 -1 38
25 128 50 172 10 17 15 32 11 32 -11 0 -52 -78 -52 -98 0 -15 -2 -15 -10 -2
-8 12 -10 10 -11 -10 l-1 -25 -7 25 c-5 18 -13 -11 -30 -103 -12 -70 -27 -127
-32 -127 -5 0 -9 -7 -9 -15 0 -8 -9 -29 -21 -47 -12 -18 -18 -24 -14 -13 28
80 47 146 55 194 13 80 5 256 -15 321 -58 188 -195 320 -375 360 -74 16 -660
27 -660 12 0 -17 18 -24 23 -10 3 7 5 -205 4 -472 l-2 -485 -5 470 c-3 259 -6
461 -8 450 -8 -68 -2 -1114 7 -1135 13 -34 58 -80 77 -80 9 0 28 -9 43 -19 26
-19 145 -43 168 -34 18 7 65 -6 59 -15 -3 -5 21 -6 53 -4 56 4 107 -10 97 -27
-3 -4 4 -15 15 -24 18 -16 19 -16 20 1 1 9 1 22 0 29 -1 6 3 14 9 18 6 4 10
-13 11 -47 l2 -53 8 64 c12 97 18 95 17 -7 -1 -147 -33 -136 408 -140 270 -2
369 0 380 9 10 8 14 40 15 123 1 61 3 103 6 94 6 -22 19 -23 31 -2 9 17 46 16
115 -1 21 -6 27 -4 27 9 0 12 9 16 35 16 42 0 125 21 125 32 0 4 9 8 20 8 10
0 24 9 30 21 6 11 17 18 23 16 17 -6 47 11 47 28 0 8 9 21 21 29 12 8 18 19
15 25 -4 6 2 18 14 28 11 10 20 29 20 43 0 15 9 44 20 67 23 49 21 141 -5 159
-15 11 -15 13 2 16 14 3 11 7 -14 18 -33 15 -44 30 -22 30 7 0 9 15 5 43 -3
23 -8 62 -11 87 -3 25 -12 65 -20 89 -27 81 13 79 44 -2 11 -29 43 -104 71
-167 57 -128 125 -292 160 -387 23 -64 49 -103 69 -103 6 0 11 -4 11 -10 0 -5
17 -12 38 -16 20 -4 46 -11 57 -17 20 -10 153 -18 137 -8 -14 9 -11 44 5 62
12 15 20 45 22 88 1 7 7 11 16 7 14 -5 21 17 16 47 -1 4 6 21 14 38 9 16 13
34 10 40 -4 5 -1 16 5 24 7 8 10 26 8 39 -4 17 -1 23 9 19 8 -3 13 2 13 17 0
11 -4 18 -10 15 -5 -3 -10 1 -10 9 0 9 5 16 10 16 6 0 11 12 11 28 2 21 3 18
9 -13 l7 -40 2 40 c0 22 8 53 16 69 8 15 15 37 15 48 0 10 5 16 10 13 6 -4 10
7 10 24 0 31 13 41 24 19 4 -7 4 3 1 22 -3 22 -2 30 4 21 6 -10 11 -5 16 19 4
19 15 47 25 64 9 17 15 37 12 44 -2 8 1 33 8 57 10 37 10 47 -4 66 l-16 23 0
-22 c0 -29 -18 -29 -22 1 -3 23 -6 24 -134 19 l-41 -2 -42 -132 c-24 -73 -54
-170 -69 -215 -27 -87 -39 -104 -23 -34 5 24 5 41 0 41 -5 0 -9 -10 -9 -22 0
-26 -42 -148 -51 -148 -3 0 -23 39 -43 88 -21 48 -42 91 -47 97 -5 5 -9 18 -9
30 0 12 -4 25 -8 30 -5 6 -17 33 -26 60 -10 28 -23 60 -29 73 -6 13 -11 46
-12 75 0 53 -13 68 -44 48 -10 -7 -11 -13 -1 -30 6 -12 10 -27 7 -34 -2 -6
-12 12 -22 41 l-19 52 -103 0 c-57 0 -103 -2 -103 -5 0 -3 11 -33 25 -67 14
-34 23 -63 21 -65 -2 -2 -12 16 -22 41 -11 25 -22 46 -26 46 -10 0 -9 -9 1
-35 5 -13 3 -31 -6 -49 -10 -19 -11 -26 -3 -21 8 5 11 3 9 -4 -7 -21 -24 -12
-25 12 0 12 -6 21 -13 19 -7 -1 -11 5 -9 15 2 10 -2 17 -9 16 -6 -1 -17 4 -23
12 -7 8 -10 15 -6 15 14 0 -162 152 -221 192 l-62 41 -1 350 c0 193 -3 353 -5
356 -3 2 -5 -165 -5 -372z m-935 -376 c23 -4 -31 -6 -125 -4 -91 3 -169 6
-175 8 -21 7 262 3 300 -4z m-308 -429 c-3 -172 -7 -315 -9 -318 -13 -13 -24
669 -11 703 17 43 24 -88 20 -385z m459 367 c3 -6 -5 -3 -20 6 -14 10 -26 19
-26 22 0 7 39 -17 46 -28z m39 -39 c10 -11 16 -20 13 -20 -3 0 -13 9 -23 20
-10 11 -16 20 -13 20 3 0 13 -9 23 -20z m-115 -1 c17 -9 52 -22 62 -23 3 -1
10 -4 14 -8 4 -5 12 -8 18 -8 6 0 4 5 -4 11 -12 9 -12 10 -1 7 8 -3 31 -34 50
-71 32 -63 35 -75 39 -180 6 -144 -11 -209 -69 -272 -42 -45 -122 -84 -177
-86 -25 -1 -26 -1 -4 -7 13 -4 -47 -8 -132 -10 -98 -1 -157 1 -161 8 -8 13 -7
529 1 592 4 26 9 46 13 44 3 -2 15 0 26 5 25 10 304 9 325 -2z m150 -49 c6
-11 8 -20 6 -20 -3 0 -10 9 -16 20 -6 11 -8 20 -6 20 3 0 10 -9 16 -20z m1360
-115 c0 -5 -5 -3 -10 5 -5 8 -10 20 -10 25 0 6 5 3 10 -5 5 -8 10 -19 10 -25z
m-623 9 c-3 -3 -12 -4 -19 -1 -8 3 -5 6 6 6 11 1 17 -2 13 -5z m373 -22 c0
-15 -2 -15 -10 -2 -13 20 -13 33 0 25 6 -3 10 -14 10 -23z m-216 -77 c9 -18
16 -41 16 -52 -1 -10 -7 0 -15 21 -8 22 -24 53 -36 70 -21 29 -21 30 -1 13 11
-11 28 -34 36 -52z m286 10 c0 -5 -5 -3 -10 5 -5 8 -10 20 -10 25 0 6 5 3 10
-5 5 -8 10 -19 10 -25z m-433 -31 c26 -5 31 -9 21 -16 -8 -6 -1 -7 22 -4 19 3
29 3 22 0 -6 -3 -10 -10 -6 -15 3 -5 -29 -9 -74 -9 -63 0 -79 3 -79 15 0 8 9
15 20 15 11 0 18 3 14 6 -3 3 0 12 6 19 7 7 13 9 15 4 2 -4 19 -11 39 -15z
m453 -19 c0 -5 -5 -3 -10 5 -5 8 -10 20 -10 25 0 6 5 3 10 -5 5 -8 10 -19 10
-25z m220 -10 c0 -5 -5 -3 -10 5 -5 8 -10 20 -10 25 0 6 5 3 10 -5 5 -8 10
-19 10 -25z m-510 -40 c0 -14 -26 -16 -200 -15 -110 1 -200 5 -200 10 0 14 37
17 223 19 153 1 177 -1 177 -14z m528 -10 c-3 -3 -9 2 -12 12 -6 14 -5 15 5 6
7 -7 10 -15 7 -18z m-1067 -253 c12 -24 46 -70 75 -101 158 -171 427 -171 600
-2 39 38 43 40 25 13 -30 -43 -73 -74 -156 -114 -66 -31 -76 -33 -180 -33
-108 0 -111 1 -182 39 -130 69 -210 183 -218 311 l-4 70 10 -70 c5 -38 19 -89
30 -113z m903 143 c3 -8 1 -15 -4 -15 -6 0 -10 7 -10 15 0 8 2 15 4 15 2 0 6
-7 10 -15z m-1243 -18 c-10 -9 -11 -8 -5 6 3 10 9 15 12 12 3 -3 0 -11 -7 -18z
m996 7 c-3 -3 -12 -4 -19 -1 -8 3 -5 6 6 6 11 1 17 -2 13 -5z m563 -41 c-11
-17 -11 -17 -6 0 3 10 6 24 7 30 0 9 2 9 5 0 3 -7 0 -20 -6 -30z m-291 -18 c0
-5 -4 -3 -9 5 -5 8 -9 22 -9 30 0 16 17 -16 18 -35z m-1304 -13 c-32 -49 -83
-85 -150 -105 -55 -17 -159 -33 -115 -18 16 6 -21 8 -100 6 l-125 -4 105 9
c58 5 120 7 138 4 39 -6 94 4 87 16 -3 4 3 6 13 3 11 -2 26 3 35 11 8 9 20 16
25 16 14 0 102 89 102 102 0 6 3 9 6 6 3 -4 -6 -24 -21 -46z m954 -23 c-31
-59 -118 -93 -214 -83 -58 6 -135 42 -135 64 0 14 20 23 21 8 0 -7 3 -8 5 -3
3 7 29 8 77 3 39 -3 102 -7 138 -7 57 -1 68 2 89 24 27 29 37 26 19 -6z m625
-3 c-3 -15 -8 -25 -11 -23 -2 3 -1 17 3 31 3 15 8 25 11 23 2 -3 1 -17 -3 -31z
m-240 -46 l7 -25 -14 25 c-8 14 -17 36 -21 50 l-7 25 14 -25 c8 -14 17 -36 21
-50z m-374 11 c-12 -17 -42 -43 -67 -58 -86 -50 -232 -32 -299 38 l-29 31 54
-36 c30 -19 58 -33 63 -30 5 3 14 1 21 -5 14 -11 143 2 187 20 14 5 39 25 55
44 34 42 46 39 15 -4z m-624 1 c0 -4 4 -15 8 -24 8 -18 7 -23 -19 -68 l-15
-25 0 32 c0 17 5 35 12 39 8 5 9 1 4 -12 -5 -13 -4 -16 3 -9 6 6 8 21 4 34
l-6 24 -17 -24 -18 -23 5 27 c3 15 12 27 20 27 8 0 11 5 7 13 -4 7 -3 9 2 4 5
-5 9 -12 10 -15z m1017 -57 c4 -8 2 -17 -3 -20 -6 -4 -10 3 -10 14 0 25 6 27
13 6z m-988 -28 c-7 -28 36 -74 57 -61 10 6 9 3 -1 -10 -11 -13 -16 -14 -22
-4 -5 7 -9 9 -9 3 0 -19 18 -38 29 -31 14 9 2 -25 -13 -37 -7 -6 -4 -7 7 -3
13 4 17 0 17 -20 0 -14 4 -23 10 -19 6 3 19 3 31 0 17 -6 20 -14 17 -58 l-3
-52 -113 -3 c-101 -2 -116 -1 -139 18 -30 24 -46 25 -63 5 -38 -46 6 -101 64
-79 9 3 13 10 10 15 -3 5 45 8 113 7 l118 -2 -110 -6 -110 -6 110 -3 c137 -4
166 -4 173 3 12 13 -9 18 -23 6 -24 -20 -18 -4 10 26 19 20 25 38 25 70 0 26
5 44 11 44 6 0 8 -7 5 -16 -3 -9 -6 -76 -6 -150 l0 -135 -345 3 c-294 3 -347
5 -355 18 -5 8 -9 39 -8 69 1 40 4 48 10 32 13 -36 28 -14 29 42 1 29 4 42 6
30 2 -13 8 -23 12 -23 7 0 34 25 59 54 6 9 18 13 26 10 7 -3 29 4 47 15 25 15
43 19 71 14 30 -4 38 -2 38 10 0 8 10 17 21 20 14 4 20 11 16 20 -3 9 4 20 19
27 13 8 24 22 24 32 0 10 7 18 16 18 9 0 18 9 21 20 3 11 10 20 15 20 6 0 7
11 3 27 -6 24 -5 25 11 13 14 -13 19 -11 43 17 32 38 33 39 26 10z m1008 -17
c3 -11 1 -18 -4 -14 -5 3 -9 12 -9 20 0 20 7 17 13 -6z m-963 -26 c0 -3 -7 -1
-15 6 -8 7 -15 17 -15 22 0 5 7 3 15 -6 8 -8 15 -18 15 -22z m985 -24 c3 -5 1
-10 -4 -10 -6 0 -11 5 -11 10 0 6 2 10 4 10 3 0 8 -4 11 -10z m-2098 -76 c-3
-3 -12 -4 -19 -1 -8 3 -5 6 6 6 11 1 17 -2 13 -5z m1268 -4 c3 -5 1 -10 -4
-10 -6 0 -11 5 -11 10 0 6 2 10 4 10 3 0 8 -4 11 -10z m0 -30 c3 -5 1 -10 -4
-10 -6 0 -11 5 -11 10 0 6 2 10 4 10 3 0 8 -4 11 -10z m-28 -92 c-3 -7 -5 -2
-5 12 0 14 2 19 5 13 2 -7 2 -19 0 -25z"/>
<path d="M3158 3283 c7 -3 16 -2 19 1 4 3 -2 6 -13 5 -11 0 -14 -3 -6 -6z"/>
<path d="M2498 3033 c6 -2 18 -2 25 0 6 3 1 5 -13 5 -14 0 -19 -2 -12 -5z"/>
<path d="M2591 3004 c0 -11 3 -14 6 -6 3 7 2 16 -1 19 -3 4 -6 -2 -5 -13z"/>
<path d="M2202 2825 c0 -16 2 -22 5 -12 2 9 2 23 0 30 -3 6 -5 -1 -5 -18z"/>
<path d="M6502 4798 c-30 -30 0 -75 43 -64 41 11 29 76 -15 76 -9 0 -21 -5
-28 -12z"/>
<path d="M5091 4754 c0 -11 3 -14 6 -6 3 7 2 16 -1 19 -3 4 -6 -2 -5 -13z"/>
<path d="M6500 4653 c-12 -37 -25 -77 -30 -88 -105 -255 -129 -289 -298 -419
-40 -31 -81 -56 -93 -56 -17 0 -18 -3 -9 -20 6 -11 15 -20 21 -20 21 0 221
187 260 243 54 76 123 226 154 333 30 104 26 124 -5 27z"/>
<path d="M4054 4643 c-25 -3 -35 -12 -47 -41 -9 -20 -46 -109 -83 -197 -36
-88 -71 -166 -76 -172 -7 -9 -52 -14 -147 -15 -105 -1 -122 -3 -76 -8 33 -4
50 -7 38 -8 -12 -1 -24 -6 -27 -10 -6 -10 112 -37 121 -28 4 3 16 0 27 -8 12
-7 28 -10 37 -7 26 10 69 48 69 61 0 10 -3 10 -15 0 -21 -17 -19 -9 10 41 23
40 25 41 20 14 l-6 -30 15 25 c8 14 12 35 10 47 -4 16 -1 21 13 20 15 -2 18 5
16 43 -1 35 0 39 6 20 8 -23 11 -20 38 41 29 61 71 109 97 109 6 0 24 7 40 15
32 17 267 24 524 16 l133 -4 20 -46 c32 -74 68 -147 69 -136 0 6 -20 59 -45
120 -25 60 -45 115 -45 121 0 18 -614 32 -736 17z m-214 -443 c0 -5 -5 -10
-11 -10 -5 0 -7 5 -4 10 3 6 8 10 11 10 2 0 4 -4 4 -10z"/>
<path d="M4880 4363 c0 -4 5 -15 10 -23 8 -13 10 -13 10 2 0 9 -4 20 -10 23
-5 3 -10 3 -10 -2z"/>
<path d="M8140 4312 c0 -24 -14 -41 -77 -95 -96 -81 -250 -227 -241 -227 26 0
69 31 150 109 116 111 168 153 183 147 21 -8 33 8 37 49 3 37 1 40 -24 43 -25
3 -28 0 -28 -26z"/>
<path d="M8591 4330 c-28 -4 -45 -18 -85 -66 -28 -34 -60 -66 -71 -72 -19 -9
-18 -10 9 -17 25 -7 33 -4 53 21 14 16 43 48 66 72 36 37 46 43 71 38 16 -3
64 -6 107 -6 l78 0 3 -87 c2 -70 6 -88 18 -88 12 0 15 17 16 90 1 49 0 95 -3
102 -5 13 -197 23 -262 13z"/>
<path d="M4900 4315 c0 -5 5 -17 10 -25 5 -8 10 -10 10 -5 0 6 -5 17 -10 25
-5 8 -10 11 -10 5z"/>
<path d="M4950 4221 c0 -11 25 -21 52 -21 12 0 18 -3 14 -7 -10 -11 86 -28
171 -31 71 -3 72 -3 87 27 9 17 16 32 16 36 0 3 -76 5 -170 5 -93 0 -170 -4
-170 -9z"/>
<path d="M5346 4198 c-14 -43 -16 -115 -16 -585 -1 -519 2 -568 33 -570 7 -1
27 -6 45 -11 19 -7 32 -7 32 -1 0 5 8 9 18 9 15 0 81 26 83 33 0 1 2 30 6 65
3 44 2 62 -7 62 -9 0 -11 41 -8 158 4 215 -1 567 -8 559 -3 -3 -9 -171 -13
-374 l-8 -368 -1 518 -2 517 -75 0 c-52 0 -77 -4 -79 -12z m164 -1043 c0 -11
-11 -15 -47 -13 l-48 1 43 4 c23 2 42 8 42 14 0 5 2 9 5 9 3 0 5 -7 5 -15z
m-103 -11 c-3 -3 -12 -4 -19 -1 -8 3 -5 6 6 6 11 1 17 -2 13 -5z"/>
<path d="M5522 4030 c0 -14 2 -19 5 -12 2 6 2 18 0 25 -3 6 -5 1 -5 -13z"/>
<path d="M8428 3983 c7 -3 16 -2 19 1 4 3 -2 6 -13 5 -11 0 -14 -3 -6 -6z"/>
<path d="M3608 3973 c7 -3 16 -2 19 1 4 3 -2 6 -13 5 -11 0 -14 -3 -6 -6z"/>
<path d="M3110 3958 c19 -5 46 -11 60 -14 24 -5 23 -5 -4 10 -15 9 -42 16 -60
15 l-31 -1 35 -10z"/>
<path d="M7765 3956 c-132 -32 -238 -124 -291 -253 -13 -32 -24 -50 -24 -40 0
27 46 133 69 158 11 12 19 25 16 27 -18 18 -102 -145 -111 -215 -4 -30 -11
-50 -16 -47 -6 4 -8 27 -5 53 3 25 3 37 0 26 -3 -11 -13 -38 -23 -60 -9 -22
-20 -47 -24 -55 -3 -8 -4 -4 -2 9 8 40 -13 133 -44 196 -44 89 -82 130 -158
167 -61 30 -75 33 -152 32 -96 -1 -153 -21 -212 -73 -46 -40 -52 -39 -28 2
l20 34 -25 11 c-14 7 -62 12 -105 12 l-80 0 -2 -132 -2 -133 -6 135 -5 135 -7
-139 c-5 -77 -8 -282 -8 -458 l0 -318 -27 -1 c-16 0 -66 0 -113 1 -89 0 -102
-3 -113 -33 -6 -16 -36 -17 -469 -17 -255 0 -469 0 -475 0 -10 0 -13 -31 -13
-120 l0 -121 -31 17 c-67 34 -319 226 -319 243 0 4 5 12 12 19 9 9 4 12 -23
12 l-34 0 35 21 c44 27 77 62 72 77 -2 7 1 12 6 12 13 0 44 49 48 75 2 11 7
33 10 49 5 18 3 27 -3 23 -7 -4 -9 10 -7 37 l4 44 -77 15 c-77 15 -77 15 -28
16 31 1 45 4 37 10 -10 6 -3 13 22 25 20 9 40 15 45 12 5 -3 11 3 14 14 3 11
0 20 -6 20 -7 0 -5 5 3 10 10 6 11 10 3 10 -8 0 -13 13 -13 33 0 47 -35 177
-60 228 -23 44 -116 149 -132 149 -6 0 4 -16 21 -35 44 -50 38 -53 -13 -8
-137 121 -360 102 -499 -40 -60 -62 -95 -133 -112 -230 -12 -69 -13 -70 -18
-32 -3 22 -4 -7 -2 -65 3 -78 9 -119 25 -160 12 -30 24 -65 27 -77 3 -13 9
-21 13 -18 4 3 11 -7 14 -21 6 -23 36 -65 36 -50 0 3 9 -3 20 -14 12 -12 18
-25 15 -30 -3 -5 0 -12 5 -15 6 -4 15 -18 20 -31 5 -13 13 -23 17 -22 15 3 43
-14 37 -23 -3 -5 9 -12 26 -16 18 -3 34 -12 37 -20 4 -11 8 -12 13 -2 5 6 9
-11 11 -40 4 -56 -2 -61 -41 -34 -29 20 -127 119 -169 171 -36 45 -54 35 -18
-10 34 -45 123 -137 175 -180 l42 -36 0 -87 c0 -86 0 -87 35 -122 19 -19 34
-38 34 -41 -3 -19 2 -25 10 -13 7 11 12 9 21 -10 7 -13 19 -28 26 -32 8 -4 14
-17 14 -28 0 -13 6 -19 18 -17 11 2 16 -3 15 -16 -1 -10 7 -28 18 -39 10 -12
19 -29 19 -39 0 -10 4 -18 9 -18 5 0 11 -10 15 -22 3 -13 19 -29 36 -37 19 -8
29 -18 26 -27 -5 -14 48 -34 91 -34 12 0 25 -4 28 -10 3 -5 31 -10 61 -10 47
0 54 3 54 20 0 28 49 34 199 26 150 -7 201 -19 201 -46 0 -39 19 -29 23 12 2
24 3 -49 3 -162 0 -140 -2 -178 -6 -120 -3 47 -8 69 -9 50 -3 -33 -3 -33 -11
-10 -5 14 -8 18 -9 9 -1 -9 -4 -31 -7 -48 -7 -33 11 -45 19 -13 3 9 5 -2 6
-25 1 -32 -3 -43 -14 -43 -11 0 -15 -11 -15 -40 0 -38 -2 -40 -30 -40 -28 0
-30 2 -30 40 0 22 -4 40 -9 40 -12 0 -71 -59 -71 -71 0 -5 -18 -9 -39 -9 -22
0 -42 -6 -45 -12 -3 -7 -3 -1 0 15 6 26 5 27 -35 27 -23 0 -41 -5 -41 -11 0
-6 -14 3 -31 20 -17 17 -28 34 -25 39 2 4 0 14 -5 22 -8 13 -10 13 -18 0 -5
-8 -7 -18 -5 -22 3 -4 0 -8 -6 -8 -7 0 -9 8 -5 19 8 26 -18 44 -52 37 -26 -6
-35 1 -105 81 -42 48 -87 99 -100 113 -21 23 -104 119 -153 179 -11 13 -26 30
-33 37 -8 8 -18 30 -23 49 l-10 35 -382 2 c-373 3 -382 3 -385 23 -6 30 -43
65 -69 65 -16 0 -29 -10 -41 -31 l-17 -31 -725 7 c-399 4 -790 10 -870 14
l-145 6 0 142 c0 78 -3 144 -6 147 -3 4 -79 11 -168 16 -178 11 -211 21 -236
71 -19 35 -39 34 -43 -3 -2 -19 5 -30 36 -51 51 -33 108 -57 138 -57 13 0 24
-4 24 -8 0 -5 -24 -7 -54 -4 -33 3 -56 0 -60 -7 -4 -7 1 -11 13 -11 14 0 19
-5 15 -15 -4 -8 -1 -15 6 -15 6 0 18 -7 26 -15 9 -8 30 -15 47 -16 18 -1 71
-2 119 -2 l88 -2 2 30 c1 17 5 -33 8 -110 5 -138 5 -139 30 -145 21 -5 22 -7
8 -13 -27 -10 -22 -21 32 -76 l50 -51 133 0 c86 0 137 -4 144 -11 15 -15 446
-13 451 2 5 12 32 12 32 0 0 -19 41 -23 65 -7 21 14 64 16 285 16 167 0 260 4
260 10 0 13 77 13 85 0 9 -15 152 -13 158 3 4 9 6 9 6 0 1 -7 6 -13 12 -13 6
0 19 -10 29 -22 10 -13 26 -23 37 -23 12 0 17 -6 15 -17 -2 -14 4 -18 29 -18
22 0 30 4 26 14 -13 34 211 68 438 67 189 -1 285 -10 307 -28 9 -9 18 -10 22
-5 6 11 46 4 46 -7 0 -4 -6 -13 -12 -20 -11 -10 -9 -15 7 -27 17 -13 18 -16 5
-24 -12 -7 -11 -10 5 -16 11 -5 20 -3 23 4 2 7 13 12 24 12 17 0 19 5 14 28
l-6 27 15 -27 c9 -16 19 -28 23 -28 4 0 13 -10 21 -22 14 -22 13 -22 -5 -8
-10 8 -22 19 -25 24 -8 10 -50 -25 -43 -36 3 -4 -4 -8 -15 -8 -18 0 -21 -6
-20 -42 l1 -43 9 33 c5 17 13 32 18 32 12 0 31 -48 31 -80 0 -29 -2 -30 -44
-30 -26 0 -48 -6 -56 -15 -11 -13 -8 -15 20 -15 34 0 34 0 8 -52 -12 -27 -16
-28 -90 -28 -63 0 -78 3 -78 15 0 13 -29 15 -200 15 -171 0 -200 -2 -200 -15
0 -19 -105 -22 -114 -2 -5 10 -7 10 -12 0 -3 -8 -26 -13 -60 -13 -30 0 -54 -4
-54 -10 0 -5 -7 -10 -15 -10 -17 0 -21 16 -5 22 17 6 -11 78 -31 78 -9 0 -20
-6 -22 -12 -4 -10 -6 -10 -6 0 -1 14 -31 17 -31 2 0 -6 -11 -15 -25 -20 -19
-7 -25 -17 -25 -40 0 -28 -2 -30 -40 -30 l-40 0 0 50 0 50 -80 0 c-64 0 -80 3
-80 15 0 11 -11 15 -40 15 l-40 0 0 -40 0 -40 -40 0 c-38 0 -40 -1 -40 -31 0
-28 -2 -30 -16 -18 -10 8 -12 15 -5 17 6 2 11 21 11 43 0 37 -2 39 -30 39 -28
0 -30 -2 -31 -42 -2 -30 -3 -35 -6 -15 l-4 27 -120 0 c-99 0 -119 3 -119 15 0
11 -11 15 -39 15 -39 0 -40 -1 -44 -37 -2 -21 -3 -14 -1 15 l3 52 -39 0 -39 0
3 -52 c2 -29 1 -36 -1 -15 -4 36 -5 37 -44 37 -28 0 -39 -4 -39 -15 0 -13 -24
-15 -160 -15 -136 0 -160 2 -160 15 0 8 -4 15 -9 15 -12 0 -71 -59 -71 -71 0
-17 -22 -9 -42 16 -16 21 -28 25 -69 25 -27 0 -49 -4 -49 -10 0 -5 -18 -10
-40 -10 -22 0 -40 5 -40 10 0 15 -157 13 -163 -2 -3 -10 -9 -10 -26 0 -12 7
-58 12 -116 12 -78 0 -95 3 -95 15 0 11 11 15 40 15 29 0 40 4 40 15 0 12 -20
15 -119 15 -86 0 -121 3 -124 13 -4 8 -14 3 -31 -15 -31 -35 -62 -36 -88 -3
-16 21 -28 25 -69 25 -46 0 -49 -2 -49 -25 0 -22 -4 -25 -40 -25 -29 0 -40 4
-40 15 0 11 -11 15 -40 15 -22 0 -40 5 -40 10 0 6 -33 10 -80 10 -64 0 -80 3
-80 15 0 12 -14 15 -63 15 -67 0 -97 17 -97 53 0 13 -9 17 -40 17 -33 0 -40 3
-40 20 0 17 -7 20 -40 20 -22 0 -40 -5 -40 -10 0 -6 -5 -16 -10 -23 -6 -7 -17
-21 -25 -32 -11 -16 -16 -18 -26 -8 -7 7 -32 13 -56 13 -32 0 -43 4 -43 15 0
8 -5 15 -11 15 -6 0 -20 11 -31 25 -25 32 -38 32 -38 0 0 -14 -4 -25 -9 -25
-12 0 -71 59 -71 71 0 5 -18 9 -40 9 -29 0 -40 4 -40 15 0 23 -77 21 -83 -2
-2 -10 -11 7 -21 40 -10 31 -21 57 -26 57 -5 0 -13 -12 -18 -27 l-10 -28 -1
28 c-1 25 -4 27 -41 27 l-40 0 0 -1175 0 -1175 5120 0 5120 0 0 1640 0 1640
-40 0 -40 0 0 -40 c0 -29 4 -40 15 -40 11 0 15 -11 15 -40 0 -22 5 -40 10 -40
6 0 10 -18 10 -40 0 -22 -4 -40 -10 -40 -5 0 -10 -18 -10 -40 0 -38 -2 -40
-30 -40 -29 0 -30 -1 -30 -48 0 -35 -5 -54 -18 -65 -25 -23 -32 -21 -32 8 0
23 -4 25 -40 25 l-40 0 0 -40 c0 -29 4 -40 15 -40 11 0 15 -11 15 -40 0 -38
-2 -40 -30 -40 -28 0 -30 2 -30 40 0 22 5 40 10 40 6 0 10 18 10 40 0 33 -3
40 -20 40 -18 0 -20 -7 -20 -80 0 -64 -3 -80 -15 -80 -8 0 -15 -7 -15 -15 0
-11 -11 -15 -40 -15 -22 0 -40 -4 -40 -10 0 -6 -33 -10 -80 -10 -64 0 -80 -3
-80 -15 0 -8 7 -15 15 -15 19 0 19 -11 0 -36 -14 -18 -14 -18 -15 9 0 24 -4
27 -35 27 -34 0 -35 1 -35 38 0 41 -14 71 -27 58 -4 -5 -2 -11 5 -13 19 -7 14
-23 -13 -45 -14 -11 -25 -24 -25 -29 0 -5 11 -9 25 -9 16 0 25 -6 25 -15 0
-12 -16 -15 -80 -15 -78 0 -80 -1 -80 -24 0 -15 7 -26 17 -28 15 -3 15 -4 0
-17 -15 -12 -17 -11 -17 3 0 9 -5 16 -11 16 -7 0 -17 7 -24 17 -9 12 -26 16
-69 14 -33 -1 -56 3 -56 9 0 5 -18 10 -40 10 -29 0 -40 4 -40 15 0 24 -19 17
-26 -10 -3 -14 -9 -25 -13 -25 -12 1 -41 27 -41 39 0 6 -11 11 -25 11 -22 0
-25 -4 -25 -40 0 -29 4 -40 15 -40 20 0 19 -24 -1 -44 -31 -32 -42 -19 -50 54
-6 69 -7 70 -35 70 -26 0 -29 -3 -29 -32 0 -75 -4 -78 -91 -78 -64 0 -79 3
-79 15 0 11 -11 15 -40 15 l-40 0 0 40 c0 36 -2 40 -25 40 -22 0 -25 4 -25 40
l0 40 50 0 50 0 0 39 c0 39 23 75 33 49 9 -25 17 -1 18 55 1 48 6 60 30 82 16
14 29 32 29 40 0 20 58 74 87 81 13 4 28 15 34 25 5 11 15 19 22 19 13 1 57
34 57 44 0 3 -26 7 -57 7 -32 1 -71 5 -88 9 -22 5 -12 7 35 6 l65 -1 3 33 3
32 -200 2 c-111 0 -207 1 -213 2 -7 1 -14 -9 -16 -20 -4 -27 19 -34 116 -34
51 0 72 -4 72 -12 0 -10 3 -9 9 1 5 7 14 12 20 10 6 -2 -17 -48 -52 -104 l-62
-100 -915 -2 -915 -1 -3 -141 -3 -141 -282 1 c-165 0 -273 4 -261 9 18 7 22
20 28 79 9 97 19 111 78 111 32 0 48 -4 48 -12 0 -9 4 -8 10 2 5 8 10 11 10 5
0 -5 4 -4 9 3 5 9 10 -12 14 -54 4 -55 9 -71 28 -85 12 -9 29 -15 36 -12 7 3
13 0 13 -6 0 -7 9 -9 23 -6 12 3 38 6 57 8 20 2 41 7 48 11 7 4 16 5 21 2 5
-3 8 2 7 12 0 9 5 16 12 15 8 -2 12 9 12 31 0 19 6 41 13 48 8 7 17 25 20 40
5 19 12 25 22 22 11 -4 15 1 15 17 1 40 23 59 67 59 22 0 74 3 116 6 62 6 76
10 80 25 3 11 14 19 25 19 10 0 27 9 37 20 10 11 24 20 31 20 7 0 22 14 34 31
13 17 33 35 47 40 15 6 31 24 41 49 11 29 18 37 24 28 6 -8 8 -3 6 16 -2 18 2
31 11 34 9 3 11 0 6 -8 -5 -8 -4 -11 3 -7 5 4 8 17 5 30 -5 22 -5 22 10 2 9
-11 17 -24 17 -28 0 -5 6 -15 14 -23 11 -11 16 -11 20 -1 4 6 4 2 2 -10 -5
-28 -3 -28 20 -5 17 16 18 16 11 -2 -8 -22 18 -70 33 -61 6 4 10 -1 10 -11 0
-13 3 -14 15 -4 12 10 15 10 15 -3 0 -8 -6 -18 -12 -21 -7 -3 -3 -3 10 0 13 3
21 1 20 -4 -3 -12 104 -72 127 -72 8 0 15 -4 15 -10 0 -5 7 -10 15 -10 8 0 15
5 15 10 0 6 8 5 20 -2 20 -13 20 -13 -2 -20 -13 -3 18 -7 67 -9 76 -2 83 -3
45 -9 -35 -6 -24 -7 53 -8 70 -2 96 1 91 9 -9 15 14 29 48 29 37 0 78 19 111
52 15 15 34 28 42 28 8 0 15 9 15 20 0 23 19 26 39 8 11 -11 11 -9 2 9 -6 12
-16 23 -22 25 -7 2 -4 9 7 18 10 8 15 10 11 4 -4 -6 3 -20 14 -30 17 -16 35
-18 122 -16 55 2 104 5 107 7 4 2 4 66 2 142 -2 76 -2 136 1 133 3 -3 7 -72 9
-153 2 -81 6 -147 11 -147 7 0 9 13 9 72 0 30 3 36 16 30 15 -5 14 -3 -1 13
-13 13 -15 20 -7 25 7 4 16 29 21 54 5 26 15 54 24 62 8 9 15 30 15 47 0 53
11 77 32 77 15 0 19 5 15 20 -3 14 1 21 17 26 28 8 110 47 116 55 3 4 14 8 25
10 31 6 27 61 -5 69 -21 5 -22 7 -7 13 24 9 22 38 -4 44 -12 3 -18 11 -15 19
3 8 1 14 -3 14 -5 0 -12 -6 -14 -12 -3 -7 -6 7 -7 32 -1 25 -7 65 -13 90 l-12
45 -50 -4 c-27 -2 -62 -9 -76 -17 -33 -17 -99 -92 -99 -112 0 -9 -3 -12 -6 -9
-10 9 21 69 48 93 13 12 41 31 63 43 25 13 30 19 15 15 -28 -7 -91 -43 -103
-58 -5 -6 -6 1 -3 17 l6 27 -67 1 c-38 1 -88 2 -113 3 -29 1 -45 -3 -46 -11
-1 -7 -2 -177 -3 -378 -1 -236 -5 -365 -11 -365 -6 0 -10 131 -10 372 0 237
-3 369 -10 362 -5 -5 -10 -52 -12 -104 -2 -69 -6 -94 -15 -92 -7 1 -13 -5 -13
-13 0 -25 -18 -17 -32 15 -12 28 -21 34 -40 31 -5 0 -8 5 -8 13 0 23 -78 114
-120 141 -46 29 -138 55 -190 54 -19 0 -57 -6 -85 -13z m35 -136 c-86 -11
-136 -44 -173 -115 -9 -17 -16 -23 -17 -14 0 25 71 100 114 120 23 10 61 18
86 17 l45 -1 -55 -7z m134 -35 c25 -20 53 -49 61 -65 24 -47 17 -49 -11 -3
-14 25 -44 54 -69 69 -25 14 -45 28 -45 30 0 11 22 1 64 -31z m-941 -16 c51
-14 110 -68 137 -127 18 -38 22 -59 18 -117 -5 -81 -23 -121 -78 -174 -49 -47
-112 -67 -167 -54 l-38 10 51 0 c125 1 221 111 218 249 -2 61 -32 132 -49 116
-5 -4 -5 -2 -2 4 7 12 -34 54 -70 73 -30 15 -129 14 -161 -3 -34 -18 -73 -59
-88 -94 -7 -16 -13 -20 -13 -11 -1 21 38 77 70 102 45 33 111 43 172 26z m867
-19 c0 -6 10 -10 23 -9 45 4 57 -1 58 -23 0 -13 3 -17 6 -10 3 9 10 4 19 -13
8 -15 14 -31 14 -35 0 -15 -87 -21 -216 -14 l-132 7 10 28 c5 16 14 32 19 35
5 3 6 -1 3 -9 -3 -8 2 -17 11 -21 9 -3 13 -2 10 4 -7 11 17 40 33 40 5 0 15 7
22 15 14 17 120 21 120 5z m-552 -41 c-3 -8 -7 -3 -11 10 -4 17 -3 21 5 13 5
-5 8 -16 6 -23z m1291 28 c-2 -1 -13 -9 -24 -17 -19 -14 -19 -14 -6 3 7 9 18
17 24 17 6 0 8 -1 6 -3z m-3864 -28 c5 -7 11 -6 21 2 11 9 14 8 14 -4 0 -8 7
-18 16 -21 8 -3 13 -2 9 3 -8 14 24 7 38 -9 8 -9 8 -11 0 -6 -7 3 -14 -2 -18
-14 -6 -18 -15 -20 -107 -20 -83 0 -99 2 -89 13 6 8 8 17 4 20 -3 4 -1 13 6
21 8 9 8 15 1 18 -5 1 15 4 45 5 29 2 57 -2 60 -8z m2580 -280 c-33 -120 -97
-204 -201 -265 -40 -23 -62 -29 -133 -32 -76 -4 -92 -1 -143 22 -31 14 -60 30
-63 36 -3 5 16 -1 42 -13 75 -34 198 -31 280 7 141 65 220 205 225 401 l2 80
4 -90 c2 -61 -2 -108 -13 -146z m708 211 c5 -20 1 -20 -211 -18 l-217 3 208 2
c175 3 207 6 207 18 0 21 7 19 13 -5z m-576 -47 c-3 -10 -5 -2 -5 17 0 19 2
27 5 18 2 -10 2 -26 0 -35z m-2567 17 c0 -11 -351 -13 -376 -3 -11 5 57 10
156 13 181 5 220 3 220 -10z m1885 -165 c6 -16 5 -18 -5 -8 -9 8 -14 43 -16
100 l-2 88 7 -80 c5 -44 12 -89 16 -100z m249 150 c10 -8 23 -12 27 -9 5 3 9
-3 10 -13 1 -12 3 -10 8 7 7 23 8 23 15 -13 4 -20 4 -42 0 -49 -4 -7 -3 -8 4
-4 7 4 12 5 12 2 0 -2 3 -13 6 -23 5 -15 4 -16 -5 -3 -9 12 -10 7 -6 -21 6
-31 2 -41 -26 -74 -76 -86 -190 -88 -256 -5 -14 17 -17 34 -5 26 5 -3 9 1 9 9
0 8 -3 12 -7 10 -3 -2 -6 5 -6 15 0 10 4 16 8 14 5 -3 11 3 15 13 4 10 17 27
29 38 12 11 25 29 28 41 4 13 23 26 54 36 60 20 63 20 86 3z m-2717 -137 c-2
-13 -4 -3 -4 22 0 25 2 35 4 23 2 -13 2 -33 0 -45z m3177 -95 c14 -33 14 -35
1 -19 -8 11 -15 25 -15 30 0 7 -3 7 -8 0 -4 -7 -8 23 -8 65 l-2 76 9 -57 c4
-31 15 -74 23 -95z m-2441 120 c-13 -2 -33 -2 -45 0 -13 2 -3 4 22 4 25 0 35
-2 23 -4z m-473 -64 c0 -4 7 -5 17 -2 10 4 14 2 10 -4 -10 -16 270 -6 341 12
30 8 28 1 -15 -40 -65 -60 -114 -77 -208 -73 -46 2 -83 6 -82 9 1 3 -12 18
-30 33 -37 31 -70 88 -47 79 8 -3 14 -9 14 -14z m3497 9 c15 -6 33 -12 38 -13
6 -2 22 -6 38 -10 17 -5 27 -3 27 4 0 6 7 11 16 11 8 0 12 -4 9 -10 -3 -5 1
-10 10 -10 9 0 24 -7 33 -16 15 -15 15 -16 -3 -11 -11 3 -50 9 -87 13 -38 3
-68 10 -68 15 0 15 -34 -3 -70 -36 -47 -44 -72 -55 -117 -54 -26 2 -30 3 -13
6 36 6 102 54 125 91 23 36 24 36 62 20z m-98 -34 c-63 -68 -192 -72 -257 -8
-21 21 -4 17 26 -6 16 -14 28 -17 32 -10 5 8 20 8 50 1 58 -13 98 -4 135 30
36 35 47 29 14 -7z m-3349 -87 c13 -9 19 -17 13 -17 -17 0 -70 47 -94 83 -18
28 -16 26 17 -8 22 -23 50 -48 64 -58z m326 54 c-7 -11 -106 -73 -106 -66 0 6
104 83 109 79 1 -1 0 -7 -3 -13z m3235 -28 c-12 -20 -14 -14 -5 12 4 9 9 14
11 11 3 -2 0 -13 -6 -23z m108 -25 c-1 -62 -7 -88 -19 -88 -4 0 -10 7 -13 14
-4 10 -1 13 9 9 8 -3 14 1 14 11 0 9 -6 16 -12 17 -10 0 -10 2 0 6 7 2 12 22
12 44 0 21 2 39 5 39 4 0 5 -24 4 -52z m-1425 3 c-2 -3 -12 3 -22 13 -16 17
-16 18 5 5 12 -7 20 -15 17 -18z m651 -21 c-4 -7 13 -23 74 -72 18 -16 29 -28
23 -28 -6 0 -37 24 -68 53 -36 33 -51 54 -41 54 9 0 14 -3 12 -7z m-2767 -17
c-10 -2 -26 -2 -35 0 -10 3 -2 5 17 5 19 0 27 -2 18 -5z m3599 -25 c-3 -8 -6
-5 -6 6 -1 11 2 17 5 13 3 -3 4 -12 1 -19z m-813 -44 c3 -8 2 -12 -4 -9 -6 3
-10 10 -10 16 0 14 7 11 14 -7z m939 -11 c-24 -2 -62 -2 -85 0 -24 2 -5 4 42
4 47 0 66 -2 43 -4z m-3986 -115 c-3 -8 -6 -5 -6 6 -1 11 2 17 5 13 3 -3 4
-12 1 -19z m3520 -54 c-3 -3 -12 -4 -19 -1 -8 3 -5 6 6 6 11 1 17 -2 13 -5z
m-3017 -8 c0 -3 -4 -8 -10 -11 -5 -3 -10 -1 -10 4 0 6 5 11 10 11 6 0 10 -2
10 -4z m-42 -15 c-3 -8 23 -30 207 -169 140 -106 175 -122 253 -122 35 0 62
-4 62 -10 0 -5 -12 -10 -27 -10 -46 0 -153 22 -153 31 0 5 -5 9 -10 9 -6 0
-25 10 -43 22 -72 50 -142 103 -145 111 -5 10 -22 9 -22 -1 0 -5 16 -17 35
-28 19 -10 35 -22 35 -27 0 -4 -5 -5 -12 -1 -7 4 -8 3 -4 -5 4 -6 11 -9 15 -7
4 3 21 -8 36 -24 15 -16 31 -27 35 -25 5 3 19 -4 31 -15 13 -11 20 -19 16 -20
-5 0 -15 7 -24 15 -8 8 -19 13 -24 10 -17 -11 -9 -21 24 -34 18 -7 37 -23 43
-34 5 -11 16 -22 24 -25 13 -3 13 -2 0 7 -8 5 -12 12 -10 15 3 2 14 -2 24 -10
11 -8 14 -14 8 -14 -18 0 -14 -20 6 -27 9 -3 28 -14 42 -23 37 -25 81 -34 91
-18 5 8 9 -12 9 -49 l0 -63 -167 0 -168 0 -109 88 c-60 48 -157 122 -215 165
-152 113 -141 98 -141 188 0 43 5 81 10 84 6 3 10 2 10 -3 0 -12 131 -4 145 9
13 13 59 11 73 -3 9 -9 13 -7 18 5 6 17 26 25 22 8z m3827 -40 c-3 -6 -11 -11
-16 -11 -5 0 -4 6 3 14 14 16 24 13 13 -3z m-2231 -5 c-9 -25 -214 -20 -214 5
0 5 49 9 110 9 89 0 108 -3 104 -14z m-254 -88 l0 -51 -415 6 c-421 7 -426 6
-431 -28 0 -5 -2 -16 -2 -24 -1 -8 -10 -11 -22 -8 -11 3 -22 1 -25 -3 -3 -5
12 -11 32 -13 l38 -4 -42 -1 -43 -2 0 75 c0 41 4 75 8 75 4 0 6 -16 4 -35 -3
-21 0 -35 7 -35 6 0 11 5 11 10 0 6 3 9 8 9 4 -1 122 0 262 1 150 2 232 6 200
10 -45 5 -33 7 65 9 177 4 95 23 -102 23 -84 0 -153 5 -153 9 0 5 -8 10 -17
11 -16 2 197 9 520 16 l97 2 0 -52z m1480 21 c0 -5 38 -9 85 -9 77 0 85 -2 85
-19 0 -11 5 -23 10 -26 6 -4 10 5 10 19 l0 26 128 0 c89 0 132 -4 140 -12 10
-10 15 -10 21 1 7 11 13 11 32 -3 29 -20 49 -21 49 -1 0 19 9 19 34 0 25 -19
46 -19 46 -1 0 8 4 17 8 20 5 3 6 -8 4 -24 -2 -17 -7 -28 -11 -25 -4 2 -5 -9
-3 -26 l4 -29 -203 -1 c-112 -1 -213 -2 -224 -3 -13 -1 -21 -9 -23 -24 -4 -27
34 -92 53 -92 8 0 17 -9 20 -20 3 -11 12 -20 20 -20 7 0 19 -13 27 -30 11 -25
18 -30 50 -30 20 0 38 6 41 13 4 10 7 10 18 0 11 -11 10 -13 -4 -13 -13 0 -17
-9 -17 -40 0 -36 -2 -40 -25 -40 -22 0 -25 -4 -25 -40 0 -29 -4 -40 -15 -40
-8 0 -15 9 -15 20 0 13 -10 24 -25 30 -14 5 -25 14 -25 20 0 5 -7 10 -15 10
-11 0 -15 -11 -15 -40 l0 -40 -80 0 c-67 0 -80 3 -80 16 0 14 -3 14 -15 4 -8
-7 -15 -18 -15 -25 0 -8 -11 -22 -25 -33 -14 -11 -25 -25 -25 -31 0 -6 -17
-11 -40 -11 -29 0 -40 -4 -40 -15 0 -11 -12 -15 -49 -15 -42 0 -53 -4 -70 -26
-17 -21 -32 -28 -71 -32 -28 -2 -50 -9 -50 -15 0 -6 -16 -7 -40 -4 -53 7 -53
-13 0 -39 52 -25 52 -44 0 -44 -22 0 -40 -4 -40 -10 0 -5 -18 -10 -40 -10 -36
0 -40 3 -40 25 0 23 -4 25 -40 25 -30 0 -40 4 -40 16 0 14 -3 14 -15 4 -8 -7
-15 -18 -15 -26 0 -16 -9 -22 -46 -28 -66 -12 -113 -46 -63 -46 11 0 17 -4 14
-10 -3 -5 -31 -10 -61 -10 -51 0 -54 1 -54 25 0 23 -4 25 -40 25 -29 0 -40 -4
-40 -15 0 -12 -18 -15 -105 -15 l-105 0 0 -40 c0 -29 -4 -40 -15 -40 -8 0 -15
7 -15 15 0 11 -11 15 -40 15 -28 0 -40 -4 -40 -14 0 -8 7 -16 17 -18 15 -3 15
-4 0 -17 -15 -12 -17 -11 -17 3 0 9 -5 16 -11 16 -6 0 -20 11 -31 25 -11 14
-24 25 -29 25 -5 0 -9 -11 -9 -25 0 -20 -5 -25 -25 -25 -22 0 -25 -4 -25 -40
0 -36 3 -40 25 -40 16 0 25 -6 25 -15 0 -11 -11 -15 -40 -15 -29 0 -40 4 -40
15 0 11 -11 15 -40 15 -36 0 -40 3 -40 25 0 25 -1 25 -80 25 -47 0 -80 -4 -80
-10 0 -5 -18 -10 -40 -10 -29 0 -40 -4 -40 -15 0 -18 -26 -20 -34 -2 -5 10 -7
10 -12 0 -8 -18 -34 -16 -34 2 0 12 -15 15 -76 15 -66 0 -78 3 -95 23 -10 12
-18 27 -19 34 0 6 -11 20 -25 31 -19 16 -25 30 -26 63 0 24 -4 67 -9 94 l-7
50 -3 -45 c-2 -31 -5 -17 -10 45 -7 98 -2 158 11 149 5 -3 6 2 3 10 -3 9 -1
16 5 16 6 0 8 6 5 14 -4 9 7 15 38 20 23 4 45 11 48 15 5 8 187 19 382 23 63
2 77 5 75 17 -3 23 51 31 268 35 190 4 371 18 383 31 21 21 -38 27 -314 31
-164 3 -300 7 -303 9 -2 3 133 5 301 5 259 0 307 2 318 15 10 12 10 15 -1 16
-12 0 -12 1 0 6 11 5 11 7 0 14 -12 8 -11 11 2 19 9 5 22 37 30 71 9 41 21 67
36 79 13 10 23 22 23 27 0 4 10 13 23 18 28 13 697 16 697 4z m-3120 -85 c0
-14 -4 -23 -9 -20 -7 5 -8 23 -2 44 4 12 11 -3 11 -24z m2135 6 c3 -5 1 -10
-4 -10 -6 0 -11 5 -11 10 0 6 2 10 4 10 3 0 8 -4 11 -10z m1665 -30 c-5 -16
-11 -34 -14 -39 -7 -11 -76 -10 -76 2 0 5 14 7 31 5 32 -3 41 5 53 45 9 30 15
18 6 -13z m-2098 -3 c3 -13 1 -32 -3 -43 -5 -13 -8 -7 -8 24 -1 46 4 55 11 19z
m-52 -7 c0 -7 -145 -10 -415 -10 -270 0 -415 3 -415 10 0 7 145 10 415 10 270
0 415 -3 415 -10z m-4503 -6 c-3 -3 -12 -4 -19 -1 -8 3 -5 6 6 6 11 1 17 -2
13 -5z m66 -1 c-7 -2 -21 -2 -30 0 -10 3 -4 5 12 5 17 0 24 -2 18 -5z m2886
-40 c120 -74 255 -184 239 -195 -9 -7 -8 -8 5 -4 13 4 34 -7 65 -32 26 -20 49
-40 52 -44 3 -4 28 -9 55 -11 28 -2 -13 -4 -90 -4 l-140 -1 -45 40 c-25 22
-81 73 -125 112 -131 117 -143 130 -122 134 18 4 24 22 7 22 -10 0 9 29 19 30
2 0 38 -21 80 -47z m2208 5 c-3 -8 -6 -5 -6 6 -1 11 2 17 5 13 3 -3 4 -12 1
-19z m3153 7 c0 -8 -4 -15 -10 -15 -5 0 -10 7 -10 15 0 8 5 15 10 15 6 0 10
-7 10 -15z m-1982 -2 c-26 -2 -71 -2 -100 0 -29 2 -8 3 47 3 55 0 79 -1 53 -3z
m-2140 -10 c-15 -2 -42 -2 -60 0 -18 2 -6 4 27 4 33 0 48 -2 33 -4z m272 -93
l-21 -30 -325 0 c-281 0 -324 -2 -324 -15 0 -8 -4 -15 -10 -15 -5 0 -10 6 -10
14 0 8 -3 21 -6 29 -4 11 1 13 22 9 18 -3 25 -1 20 6 -5 8 2 8 25 0 25 -8 33
-8 40 3 8 12 10 12 18 0 6 -10 19 -12 42 -7 19 4 66 7 104 8 51 0 63 3 45 9
-15 5 6 6 53 2 57 -4 77 -2 77 7 0 9 20 10 80 5 72 -6 80 -5 80 10 0 15 7 17
50 13 32 -3 50 -1 51 6 1 6 3 3 6 -6 2 -10 -5 -31 -17 -48z m2306 13 c-10 -10
-19 5 -10 18 6 11 8 11 12 0 2 -7 1 -15 -2 -18z m-1933 10 c-13 -2 -33 -2 -45
0 -13 2 -3 4 22 4 25 0 35 -2 23 -4z m2017 -53 c0 -36 -2 -40 -25 -40 -22 0
-25 4 -25 40 0 36 3 40 25 40 23 0 25 -4 25 -40z m1120 13 c-1 -27 -1 -27 -15
-9 -19 25 -19 36 0 36 10 0 15 -10 15 -27z m-4183 -125 c-3 -7 -5 -2 -5 12 0
14 2 19 5 13 2 -7 2 -19 0 -25z m-184 -55 c-7 -2 -19 -2 -25 0 -7 3 -2 5 12 5
14 0 19 -2 13 -5z m185 -265 c0 -128 -4 -255 -8 -283 -5 -32 -8 22 -9 150 -1
180 7 365 15 365 2 0 3 -105 2 -232z m-878 100 c0 -18 -17 -6 -34 25 l-19 32
26 -24 c15 -14 27 -28 27 -33z m3167 30 c-3 -8 -6 -5 -6 6 -1 11 2 17 5 13 3
-3 4 -12 1 -19z m-242 -68 c-3 -5 -10 -10 -16 -10 -5 0 -9 5 -9 10 0 6 7 10
16 10 8 0 12 -4 9 -10z m-7280 -80 c-3 -5 -10 -10 -16 -10 -5 0 -9 5 -9 10 0
6 7 10 16 10 8 0 12 -4 9 -10z m4460 -1 c11 -16 1 -19 -13 -3 -7 8 -8 14 -3
14 5 0 13 -5 16 -11z m52 -65 c-6 -6 -37 25 -37 37 0 5 9 0 21 -12 11 -11 19
-23 16 -25z m-110 -3 c-5 -2 -13 3 -18 10 -15 24 -10 30 9 12 10 -10 14 -20 9
-22z m-3948 -8 c0 -11 -3 -13 -6 -5 -2 6 -17 12 -33 12 -16 0 -31 -6 -33 -12
-3 -8 -6 -6 -6 5 -1 13 7 17 39 17 32 0 40 -4 39 -17z m6401 -3 c0 -5 -4 -10
-10 -10 -5 0 -10 5 -10 10 0 6 5 10 10 10 6 0 10 -4 10 -10z m44 -5 c-4 -8
-10 -15 -14 -15 -4 0 -10 7 -14 15 -4 10 1 15 14 15 13 0 18 -5 14 -15z
m-2324 -47 c0 -4 -9 1 -20 12 -11 11 -20 23 -20 27 0 3 9 -2 20 -12 11 -10 20
-22 20 -27z m-3320 -33 c0 -11 -11 -15 -40 -15 -29 0 -40 4 -40 15 0 11 11 15
40 15 29 0 40 -4 40 -15z m3120 -12 c-1 -27 -1 -27 -15 -9 -19 25 -19 36 0 36
10 0 15 -10 15 -27z m288 -69 c-3 -14 -5 -12 -10 9 -3 19 -2 25 4 19 6 -6 8
-18 6 -28z m-2418 12 c0 -2 -7 -9 -15 -16 -12 -10 -15 -10 -15 4 0 9 7 16 15
16 8 0 15 -2 15 -4z m1810 -21 c0 -22 -4 -25 -40 -25 -36 0 -40 3 -40 25 0 23
4 25 40 25 36 0 40 -2 40 -25z m1520 -10 c0 -8 -6 -15 -14 -15 -17 0 -28 14
-19 24 12 12 33 6 33 -9z m-370 -129 c0 -3 -4 -8 -10 -11 -5 -3 -10 -1 -10 4
0 6 5 11 10 11 6 0 10 -2 10 -4z m30 -12 c0 -8 -4 -12 -10 -9 -5 3 -10 10 -10
16 0 5 5 9 10 9 6 0 10 -7 10 -16z m0 -64 c0 -16 -4 -30 -10 -30 -11 0 -14 43
-3 53 11 12 13 8 13 -23z m-35 10 c3 -5 1 -10 -4 -10 -6 0 -11 5 -11 10 0 6 2
10 4 10 3 0 8 -4 11 -10z m-225 -30 c0 -5 -5 -10 -11 -10 -5 0 -7 5 -4 10 3 6
8 10 11 10 2 0 4 -4 4 -10z m147 4 c-3 -3 -12 -4 -19 -1 -8 3 -5 6 6 6 11 1
17 -2 13 -5z m73 -4 c0 -5 -5 -10 -11 -10 -5 0 -7 5 -4 10 3 6 8 10 11 10 2 0
4 -4 4 -10z m4070 -1331 c12 -8 12 -9 -5 -7 -38 4 -75 -12 -89 -41 -9 -16 -12
-31 -9 -35 4 -3 1 -6 -5 -6 -35 0 21 85 61 93 12 2 24 5 27 5 3 1 12 -3 20 -9z
m54 -59 c0 -28 -6 -56 -13 -63 -10 -9 -10 -6 -2 16 6 16 7 36 2 50 -8 23 -5
47 7 47 4 0 7 -23 6 -50z m109 22 c-10 -10 -20 -17 -22 -16 -6 5 20 34 30 34
5 0 1 -8 -8 -18z m264 -49 c-3 -10 -5 -4 -5 12 0 17 2 24 5 18 2 -7 2 -21 0
-30z m-156 -10 c-4 -28 -6 -32 -9 -15 -3 22 3 52 11 52 1 0 1 -17 -2 -37z
m122 7 c3 -11 1 -18 -4 -14 -5 3 -9 12 -9 20 0 20 7 17 13 -6z m-489 -25 c3
-8 1 -15 -3 -15 -5 0 -11 7 -15 15 -3 8 -1 15 3 15 5 0 11 -7 15 -15z m250 -1
c3 -8 2 -12 -4 -9 -6 3 -10 10 -10 16 0 14 7 11 14 -7z m76 2 c0 -2 -8 -10
-17 -17 -16 -13 -17 -12 -4 4 13 16 21 21 21 13z m125 -24 c-3 -3 -11 0 -18 7
-9 10 -8 11 6 5 10 -3 15 -9 12 -12z m-330 -11 c-6 -4 -23 -11 -40 -14 l-30
-6 30 14 c35 16 54 19 40 6z"/>
<path d="M7651 3674 c0 -11 3 -14 6 -6 3 7 2 16 -1 19 -3 4 -6 -2 -5 -13z"/>
<path d="M4960 2942 c0 -4 9 -13 20 -20 11 -7 20 -9 20 -4 0 4 -9 13 -20 20
-11 7 -20 9 -20 4z"/>
<path d="M5025 2890 c10 -11 23 -20 28 -20 6 0 2 9 -8 20 -10 11 -23 20 -28
20 -6 0 -2 -9 8 -20z"/>
<path d="M5040 2851 c0 -10 19 -25 25 -20 1 2 -3 10 -11 17 -8 7 -14 8 -14 3z"/>
<path d="M5130 2771 c0 -6 5 -13 10 -16 6 -3 10 1 10 9 0 9 -4 16 -10 16 -5 0
-10 -4 -10 -9z"/>
<path d="M6428 2953 c7 -3 16 -2 19 1 4 3 -2 6 -13 5 -11 0 -14 -3 -6 -6z"/>
<path d="M7738 2403 c7 -3 16 -2 19 1 4 3 -2 6 -13 5 -11 0 -14 -3 -6 -6z"/>
<path d="M5740 2310 c0 -5 5 -10 10 -10 6 0 10 5 10 10 0 6 -4 10 -10 10 -5 0
-10 -4 -10 -10z"/>
<path d="M7500 2250 c0 -5 5 -10 10 -10 6 0 10 5 10 10 0 6 -4 10 -10 10 -5 0
-10 -4 -10 -10z"/>
<path d="M6290 2010 c0 -5 7 -10 15 -10 8 0 15 5 15 10 0 6 -7 10 -15 10 -8 0
-15 -4 -15 -10z"/>
<path d="M4665 2740 c3 -5 8 -10 11 -10 2 0 4 5 4 10 0 6 -5 10 -11 10 -5 0
-7 -4 -4 -10z"/>
<path d="M8683 3963 c9 -2 23 -2 30 0 6 3 -1 5 -18 5 -16 0 -22 -2 -12 -5z"/>
<path d="M2895 3940 c-3 -5 -2 -10 4 -10 5 0 13 5 16 10 3 6 2 10 -4 10 -5 0
-13 -4 -16 -10z"/>
<path d="M5948 3911 c-80 -26 -139 -63 -187 -117 -54 -61 -81 -120 -94 -205
-26 -168 46 -330 186 -420 33 -22 56 -39 51 -39 -18 0 -100 57 -138 96 -20 21
-54 72 -74 113 -36 72 -37 79 -37 180 1 113 20 187 64 250 26 37 28 52 2 19
-24 -30 -65 -119 -80 -174 -16 -59 -14 -151 5 -215 19 -64 73 -169 86 -169 6
0 7 -7 4 -16 -3 -8 -2 -13 3 -10 12 8 33 -19 23 -29 -4 -5 -2 -5 4 -2 6 4 22
-5 35 -19 l24 -26 -26 7 c-15 4 -29 3 -32 -2 -3 -5 10 -8 30 -8 26 1 38 -4 49
-21 8 -12 27 -25 42 -29 15 -4 29 -11 32 -16 24 -38 310 -28 354 12 6 5 18 9
28 9 10 0 18 4 18 9 0 5 9 11 21 14 12 3 18 10 15 15 -4 6 3 8 16 5 18 -4 20
-2 8 6 -12 9 -12 11 3 17 9 3 14 10 11 15 -3 5 1 9 9 9 20 0 47 33 47 58 0 12
4 22 10 22 12 0 40 65 40 92 0 10 3 17 8 15 4 -3 8 14 9 36 1 23 -3 45 -9 48
-6 4 -10 31 -10 60 0 30 -3 63 -8 74 -4 11 -13 43 -19 70 -20 86 -107 211
-170 245 -33 17 -24 -2 13 -30 19 -14 33 -26 31 -28 -2 -2 -24 12 -49 32 -85
65 -230 84 -348 47z m436 -117 c5 -14 4 -15 -9 -4 -17 14 -19 20 -6 20 5 0 12
-7 15 -16z m-219 -55 c28 -19 63 -57 80 -84 27 -43 30 -57 29 -124 -1 -87 -19
-137 -65 -181 -39 -37 -105 -63 -150 -58 -32 3 -30 4 22 16 70 16 153 85 169
140 43 158 -67 317 -220 316 -60 -1 -90 -12 -133 -53 -44 -40 -58 -75 -66
-164 l-8 -82 -2 70 c-1 55 4 81 23 120 43 92 100 126 201 123 63 -3 76 -7 120
-39z m-235 -32 c0 -2 -10 -12 -22 -23 l-23 -19 19 23 c18 21 26 27 26 19z
m213 -86 c24 -1 27 -4 22 -21 -4 -14 -2 -20 8 -20 19 0 44 -56 45 -99 2 -110
-134 -192 -243 -146 -63 26 -116 101 -85 120 6 3 10 22 10 41 0 21 4 33 10 29
6 -3 10 0 10 7 0 7 16 23 36 36 19 12 32 27 29 32 -3 5 4 12 17 14 13 3 32 7
43 9 11 3 31 3 45 2 14 -2 38 -4 53 -4z m-276 -143 c-3 -8 -6 -5 -6 6 -1 11 2
17 5 13 3 -3 4 -12 1 -19z m-17 -53 c0 -5 -5 -3 -10 5 -5 8 -10 20 -10 25 0 6
5 3 10 -5 5 -8 10 -19 10 -25z m553 -150 c-3 -9 -8 -14 -10 -11 -3 3 -2 9 2
15 9 16 15 13 8 -4z m-83 -89 c0 -2 -8 -10 -17 -17 -16 -13 -17 -12 -4 4 13
16 21 21 21 13z m-341 -72 c10 -9 -35 -3 -49 6 -11 8 -7 9 15 4 17 -4 32 -8
34 -10z m84 -11 c-13 -2 -35 -2 -50 0 -16 2 -5 4 22 4 28 0 40 -2 28 -4z"/>
<path d="M6229 3915 c42 -19 50 -19 25 0 -10 8 -28 14 -39 14 -14 0 -10 -4 14
-14z"/>
<path d="M5844 3894 c-18 -14 -18 -15 4 -4 12 6 22 13 22 15 0 8 -5 6 -26 -11z"/>
<path d="M5790 3860 c-9 -6 -10 -10 -3 -10 6 0 15 5 18 10 8 12 4 12 -15 0z"/>
<path d="M5755 3829 c-11 -17 1 -21 15 -4 8 9 8 15 2 15 -6 0 -14 -5 -17 -11z"/>
<path d="M2731 3804 c0 -11 3 -14 6 -6 3 7 2 16 -1 19 -3 4 -6 -2 -5 -13z"/>
<path d="M4311 3714 c0 -11 3 -14 6 -6 3 7 2 16 -1 19 -3 4 -6 -2 -5 -13z"/>
<path d="M3971 3664 c0 -11 3 -14 6 -6 3 7 2 16 -1 19 -3 4 -6 -2 -5 -13z"/>
<path d="M3952 3610 c0 -14 2 -19 5 -12 2 6 2 18 0 25 -3 6 -5 1 -5 -13z"/>
<path d="M10207 3392 c-23 -25 -21 -32 8 -32 20 0 25 5 25 25 0 30 -11 32 -33
7z"/>
<path d="M5637 3339 c4 -13 8 -18 11 -10 2 7 -1 18 -6 23 -8 8 -9 4 -5 -13z"/>
<path d="M5655 3310 c-3 -5 -1 -10 4 -10 6 0 11 5 11 10 0 6 -2 10 -4 10 -3 0
-8 -4 -11 -10z"/>
<path d="M8363 3132 c-49 -4 -59 -27 -15 -36 47 -10 162 -3 174 11 6 8 9 15 7
17 -7 6 -124 12 -166 8z"/>
<path d="M10110 3080 c0 -22 5 -40 10 -40 6 0 10 18 10 40 0 22 -4 40 -10 40
-5 0 -10 -18 -10 -40z"/>
<path d="M10060 2975 c-10 -12 -10 -15 4 -15 9 0 16 7 16 15 0 8 -2 15 -4 15
-2 0 -9 -7 -16 -15z"/>
<path d="M4013 2963 c-30 -28 -34 -49 -12 -77 24 -31 55 -42 72 -24 37 40 39
45 23 76 -23 44 -51 52 -83 25z m57 -67 c0 -3 -4 -8 -10 -11 -5 -3 -10 -1 -10
4 0 6 5 11 10 11 6 0 10 -2 10 -4z"/>
<path d="M1898 2863 c6 -2 18 -2 25 0 6 3 1 5 -13 5 -14 0 -19 -2 -12 -5z"/>
<path d="M1948 2843 c6 -2 18 -2 25 0 6 3 1 5 -13 5 -14 0 -19 -2 -12 -5z"/>
<path d="M2016 2781 c-4 -7 -5 -15 -2 -18 9 -9 19 4 14 18 -4 11 -6 11 -12 0z"/>
<path d="M2091 2774 c0 -11 3 -14 6 -6 3 7 2 16 -1 19 -3 4 -6 -2 -5 -13z"/>
<path d="M9760 2735 c0 -11 11 -15 40 -15 29 0 40 4 40 15 0 11 -11 15 -40 15
-29 0 -40 -4 -40 -15z"/>
<path d="M2015 2731 c-4 -7 -4 -24 0 -39 7 -26 8 -26 17 -6 12 25 -4 66 -17
45z"/>
<path d="M2150 2709 c0 -5 5 -7 10 -4 6 3 10 8 10 11 0 2 -4 4 -10 4 -5 0 -10
-5 -10 -11z"/>
<path d="M2325 2699 c-49 -6 -49 -6 -10 -8 22 -1 49 -8 59 -16 13 -10 22 -11
26 -5 4 7 21 5 49 -5 24 -8 59 -15 77 -15 19 0 34 -4 34 -10 0 -5 18 -10 40
-10 22 0 40 5 40 10 0 6 18 10 40 10 23 0 40 -5 40 -11 0 -16 84 -6 132 15 26
11 36 21 32 31 -5 12 -30 15 -128 16 -66 1 -179 2 -251 3 -71 0 -152 -2 -180
-5z m508 -26 c-7 -2 -19 -2 -25 0 -7 3 -2 5 12 5 14 0 19 -2 13 -5z m-33 -23
c0 -13 -30 -13 -50 0 -11 7 -7 10 18 10 17 0 32 -4 32 -10z"/>
<path d="M2203 2693 c9 -2 23 -2 30 0 6 3 -1 5 -18 5 -16 0 -22 -2 -12 -5z"/>
<path d="M9416 2664 c-18 -18 -18 -19 -2 -22 22 -5 29 2 24 24 -3 16 -4 16
-22 -2z"/>
<path d="M8850 2600 c0 -39 2 -42 23 -36 12 3 37 6 55 6 29 0 32 3 32 30 0 27
-3 30 -32 30 -18 0 -43 3 -55 6 -21 6 -23 3 -23 -36z"/>
<path d="M220 2335 c-7 -8 -23 -15 -36 -15 -13 0 -24 -4 -24 -10 0 -5 18 -10
40 -10 36 0 40 3 40 25 0 29 -3 31 -20 10z"/>
<path d="M2910 2090 c0 -5 5 -10 10 -10 6 0 10 5 10 10 0 6 -4 10 -10 10 -5 0
-10 -4 -10 -10z"/>
<path d="M1120 2070 c0 -5 18 -10 40 -10 22 0 40 5 40 10 0 6 -18 10 -40 10
-22 0 -40 -4 -40 -10z"/>
<path d="M2240 2010 c0 -5 7 -10 15 -10 8 0 15 5 15 10 0 6 -7 10 -15 10 -8 0
-15 -4 -15 -10z"/>
<path d="M5460 2010 c0 -5 5 -10 11 -10 5 0 7 5 4 10 -3 6 -8 10 -11 10 -2 0
-4 -4 -4 -10z"/>
<path d="M5010 2000 c20 -13 33 -13 25 0 -3 6 -14 10 -23 10 -15 0 -15 -2 -2
-10z"/>
<path d="M5060 1990 c-8 -5 -10 -10 -5 -10 6 0 17 5 25 10 8 5 11 10 5 10 -5
0 -17 -5 -25 -10z"/>
<path d="M5104 1989 c-3 -6 -2 -15 3 -20 5 -5 9 -1 9 11 0 23 -2 24 -12 9z"/>
</g>
</svg>
